
<svg   xmlns="http://www.w3.org/2000/svg" viewBox="0 0 150 150" >
        <style> .audio0{fill:#ab005f} .audio1{fill:none} .audio2{fill:#bf106e} .audio3{fill:#eb1478}</style><path class="audio0" d="M120.5 6.142h-91a1 1 0 00-1 1v135.716a1 1 0 001 1h91a1 1 0 001-1V7.142a1 1 0 00-1-1zM40.72 36.121c.912-9.205 8.357-16.65 17.562-17.562 12.44-1.231 22.807 9.137 21.575 21.575-.911 9.205-8.357 16.65-17.561 17.562-12.44 1.232-22.807-9.136-21.576-21.575zm66.367 66.737c0 1.943-.182 3.843-.513 5.691-2.688 15.005-15.796 26.396-31.574 26.396-8.534 0-16.284-3.338-22.032-8.772-6.188-5.85-10.055-14.128-10.055-23.315 0-16.51 12.47-30.102 28.505-31.884 1.177-.13 2.37-.203 3.582-.203 14.22 0 26.272 9.254 30.482 22.065a32.042 32.042 0 011.605 10.022z"></path><path class="audio1" d="M42.913 102.858c0 17.721 14.366 32.087 32.087 32.087s32.087-14.366 32.087-32.087c0-3.501-.568-6.867-1.605-10.022L71.418 70.975c-16.034 1.781-28.505 15.373-28.505 31.883zm32.085-10.034c5.621 0 10.178 4.557 10.178 10.178 0 5.62-4.557 10.178-10.178 10.178s-10.178-4.557-10.178-10.178c0-5.622 4.557-10.178 10.178-10.178z"></path><circle class="audio2" cx="74.998" cy="103.002" r="10.178"></circle><path class="audio3" d="M120.5 6.142h-91a1 1 0 00-1 1V43.43l42.918 27.544c1.177-.13 2.37-.203 3.582-.203 14.22 0 26.272 9.254 30.482 22.066l16.018 10.28V7.142a1 1 0 00-1-1zM62.296 57.696C49.857 58.928 39.489 48.56 40.721 36.12c.911-9.205 8.357-16.65 17.561-17.562 12.44-1.232 22.807 9.136 21.575 21.575-.911 9.205-8.357 16.65-17.561 17.562z"></path><circle class="audio3" cx="60.289" cy="38.128" r="5.338"></circle><path class="audio2" d="M121.5 103.117l-16.018-10.28a32.038 32.038 0 011.605 10.02c0 1.944-.182 3.844-.513 5.692l14.926-4.907v-.525zm-78.587-.26c0-16.51 12.47-30.1 28.505-31.883L28.5 43.43v90.787l24.468-8.044c-6.188-5.85-10.055-14.128-10.055-23.315z"></path><path class="audio0" d="M29.5 143.858h91a1 1 0 001-1v-39.216l-14.926 4.907c-2.688 15.005-15.796 26.396-31.574 26.396-8.534 0-16.284-3.338-22.032-8.772L28.5 134.217v8.64a1 1 0 001 1z"></path><path class="audio1" d="M42.913 102.858c0 17.721 14.366 32.087 32.087 32.087s32.087-14.366 32.087-32.087c0-3.501-.568-6.867-1.605-10.022L71.418 70.975c-16.034 1.781-28.505 15.373-28.505 31.883zm32.085-10.034c5.621 0 10.178 4.557 10.178 10.178 0 5.62-4.557 10.178-10.178 10.178s-10.178-4.557-10.178-10.178c0-5.622 4.557-10.178 10.178-10.178z"></path><circle class="audio2" cx="74.998" cy="103.002" r="10.178"></circle><path class="audio3" d="M120.5 6.142h-91a1 1 0 00-1 1V43.43l42.918 27.544c1.177-.13 2.37-.203 3.582-.203 14.22 0 26.272 9.254 30.482 22.066l16.018 10.28V7.142a1 1 0 00-1-1zM62.296 57.696C49.857 58.928 39.489 48.56 40.721 36.12c.911-9.205 8.357-16.65 17.561-17.562 12.44-1.232 22.807 9.136 21.575 21.575-.911 9.205-8.357 16.65-17.561 17.562z"></path><circle class="audio3" cx="60.289" cy="38.128" r="5.338"></circle><path class="audio2" d="M121.5 103.117l-16.018-10.28a32.038 32.038 0 011.605 10.02c0 1.944-.182 3.844-.513 5.692l14.926-4.907v-.525zm-78.587-.26c0-16.51 12.47-30.1 28.505-31.883L28.5 43.43v90.787l24.468-8.044c-6.188-5.85-10.055-14.128-10.055-23.315z"></path><path class="audio0" d="M29.5 143.858h91a1 1 0 001-1v-39.216l-14.926 4.907c-2.688 15.005-15.796 26.396-31.574 26.396-8.534 0-16.284-3.338-22.032-8.772L28.5 134.217v8.64a1 1 0 001 1z"></path>


</svg>
