
<svg   xmlns="http://www.w3.org/2000/svg" viewBox="0 0 150 150" >
      <style> .film1{fill:none} .film2{fill:#bf106e} .film3{fill:#eb1478}</style><path class="film3" d="M118.153 90.786l-13.466-24.271-1.059-1.909-3.538-6.376a1.464 1.464 0 00-1.99-.57L32.472 94.072a1.464 1.464 0 00-.57 1.99l15.276 27.532.038.068 1.542 2.78 5.805 10.462a1.463 1.463 0 001.99.57l65.628-36.412c.26-.144.457-.357.585-.602a1.46 1.46 0 00-.016-1.388l-4.597-8.285zm29.408-9.255L133.75 56.638l-5.646-10.176a1.464 1.464 0 00-2.374-.263l-14.454 16.267a1.464 1.464 0 00-.185 1.682l8.854 15.959.715 1.29 2.89 5.209c.302.543.914.837 1.527.732l21.45-3.654a1.463 1.463 0 001.034-2.153zM43.743 39.829c.033.457.074.913.132 1.37.043.342.103.684.16 1.026.075.436.149.873.246 1.308.081.364.185.726.284 1.089.111.411.216.824.349 1.232.128.393.285.779.433 1.168.143.375.272.753.433 1.125.213.487.464.965.71 1.444.13.255.241.516.381.769 4.715 8.497 13.551 13.26 22.63 13.18a25.473 25.473 0 0012.17-3.217c.721-.4 1.407-.837 2.073-1.294.177-.121.343-.251.516-.376.481-.347.948-.706 1.398-1.081.192-.16.38-.324.565-.49.423-.373.83-.76 1.222-1.157.163-.165.33-.327.487-.496.445-.474.867-.965 1.271-1.468.08-.097.165-.19.242-.29.482-.619.934-1.257 1.354-1.914.07-.107.128-.22.194-.327a25.37 25.37 0 00.944-1.656c.107-.205.205-.415.306-.623a25.242 25.242 0 001.464-3.72c.063-.207.134-.411.192-.62a25.67 25.67 0 00.83-4.465c.021-.232.03-.465.045-.698.036-.526.06-1.053.063-1.582l-.001-.047a26.239 26.239 0 00-.098-2.29c-.023-.27-.044-.54-.075-.81a25.383 25.383 0 00-.27-1.715c-.035-.19-.059-.38-.099-.569-.009-.039-.012-.078-.02-.116l-.007.002-.003.001a25.579 25.579 0 00-2.63-7.003c-6.86-12.36-22.44-16.822-34.8-9.963-6.497 3.604-10.78 9.624-12.416 16.313-.057.236-.12.47-.17.707-.002-.005-.01-.01-.01-.015-.016.07-.023.142-.037.212a25.84 25.84 0 00-.254 1.492c-.04.273-.08.545-.112.82-.055.486-.092.974-.12 1.463a25.448 25.448 0 00-.025 2.314c.011.32.032.64.056.962zm18.112-15.212c7.36-4.083 16.636-1.427 20.72 5.932.807 1.455 1.278 2.992 1.575 4.542.105.55.168 1.102.212 1.655.464 5.765-2.331 11.533-7.72 14.522-7.36 4.084-16.636 1.428-20.719-5.932-1.832-3.303-2.24-6.979-1.543-10.412.123-.602.29-1.193.481-1.776 1.15-3.501 3.518-6.602 6.995-8.532zM37.26 85.218l.16-.121c.112-.085.225-.17.335-.26a21.654 21.654 0 002.247-2.15c.134-.147.26-.296.44-.507a21.373 21.373 0 001.856-2.498c.044-.069.083-.14.122-.212l.058-.102c.497-.82.95-1.702 1.348-2.623l.072-.16c.045-.094.09-.19.13-.29a21.904 21.904 0 001.083-3.528 21.53 21.53 0 00.457-3.037c.008-.101.011-.202.014-.304l.006-.16c.017-.315.015-.623.02-.934a21.376 21.376 0 00-.064-2.119l-.004-.076a2.937 2.937 0 00-.012-.198c-.1-.99-.289-2.022-.584-3.204a2.194 2.194 0 00-.055-.282s-.793-2.44-1.117-3.119-.548-1.179-.857-1.737C37.11 47.14 23.88 43.35 13.419 49.154A21.483 21.483 0 003.411 61.161l-.033-.022-.368 1.332a4.63 4.63 0 00-.064.285 21.388 21.388 0 00-.368 1.672c-.012.068-.02.136-.04.29a25.608 25.608 0 00-.217 1.756l-.01.244c-.045.67-.062 1.26-.053 1.809 0 .06.005.12.014.247.02.693.058 1.27.12 1.821l.033.207c.087.705.183 1.293.3 1.843.01.049.024.097.039.15A21.688 21.688 0 0023.96 89.822h.194a21.727 21.727 0 0010.367-2.762 21.595 21.595 0 002.738-1.841zm-7.582-6.753a11.749 11.749 0 01-8.99 1.028 11.749 11.749 0 01-7.086-5.632 11.648 11.648 0 01-1.28-7.745 12.24 12.24 0 01.353-1.496c.912-2.936 2.877-5.363 5.531-6.836a11.75 11.75 0 015.717-1.482c4.161 0 8.203 2.196 10.361 6.086.476.858.832 1.825 1.118 3.046.175.745.267 1.495.296 2.24.171 4.39-2.107 8.62-6.017 10.79z"></path><path class="film1" d="M35.4 65.434c-.286-1.22-.642-2.188-1.118-3.046-2.158-3.89-6.2-6.087-10.36-6.087-1.94 0-3.905.478-5.717 1.483-2.654 1.473-4.619 3.9-5.531 6.835-.973 3.129-.643 6.411.928 9.242a11.748 11.748 0 007.085 5.632 11.75 11.75 0 008.991-1.028c4.575-2.538 6.927-7.896 5.722-13.031z"></path><path class="film3" d="M100.09 58.23a1.464 1.464 0 00-1.99-.57L32.472 94.072a1.464 1.464 0 00-.57 1.99l15.276 27.532.038.068 56.412-59.056-3.538-6.376z"></path><path d="M48.758 126.441l5.805 10.463a1.463 1.463 0 001.99.57l65.628-36.412a1.45 1.45 0 00.585-.602l-74.008 25.982z" fill="#ab005f"></path><path class="film2" d="M122.75 99.072l-4.597-8.286-13.466-24.271-1.06-1.909-56.411 59.056 1.542 2.78 74.008-25.982a1.46 1.46 0 00-.016-1.388z"></path><path class="film3" d="M128.104 46.462a1.464 1.464 0 00-2.374-.263l-14.454 16.267a1.464 1.464 0 00-.185 1.682l8.854 15.959 13.805-23.469-5.646-10.176z"></path><path class="film2" d="M120.66 81.397l2.89 5.209c.302.543.914.837 1.527.732l21.45-3.654a1.464 1.464 0 001.034-2.153L133.75 56.638l-13.805 23.469.715 1.29zM84.363 36.746c.463 5.765-2.333 11.533-7.72 14.522-7.36 4.084-16.637 1.428-20.72-5.932-1.833-3.303-2.242-6.979-1.543-10.412.123-.602.29-1.193.48-1.776l-10.444-1.274c-.058.235-.12.469-.171.706-.002-.005-.01-.01-.01-.015-.016.07-.022.142-.037.212-.103.494-.181.992-.254 1.492-.04.273-.081.545-.112.82-.056.485-.092.974-.12 1.463a25.9 25.9 0 00-.026 2.313c.01.32.032.64.055.962.033.456.073.913.13 1.369.044.343.104.684.162 1.027.074.436.148.873.245 1.307.082.365.186.726.284 1.089.11.411.216.824.349 1.232.127.392.285.779.433 1.168.143.375.272.753.433 1.125.213.487.463.965.709 1.444.13.255.242.516.382.77C51.584 58.856 60.42 63.62 69.5 63.54a25.484 25.484 0 0012.17-3.218c.72-.4 1.407-.837 2.073-1.294.176-.12.342-.25.515-.376.48-.346.948-.705 1.398-1.08a25.72 25.72 0 001.787-1.645c.163-.165.328-.327.486-.496a25.49 25.49 0 001.271-1.468c.078-.098.165-.19.241-.29a25.49 25.49 0 001.354-1.915c.069-.107.128-.22.194-.327.336-.542.652-1.093.945-1.656.107-.205.205-.414.306-.622a26.081 26.081 0 00.936-2.162 25.47 25.47 0 00.527-1.558c.063-.207.133-.411.192-.62a25.72 25.72 0 00.828-4.465c.022-.232.03-.465.046-.698.036-.526.06-1.053.063-1.583v-.047l-10.47-1.277z"></path><path class="film3" d="M61.855 24.617c7.36-4.083 16.636-1.427 20.72 5.932.807 1.456 1.279 2.992 1.575 4.542.105.55.168 1.102.213 1.655l10.47 1.277a25.88 25.88 0 00-.097-2.29c-.024-.27-.044-.54-.076-.81a24.582 24.582 0 00-.269-1.715c-.035-.19-.059-.38-.099-.569-.008-.038-.012-.077-.02-.115l-.006.002-.003.002a25.565 25.565 0 00-2.63-7.003c-6.859-12.36-22.439-16.822-34.8-9.963-6.497 3.604-10.78 9.625-12.415 16.314l10.444 1.274c1.15-3.5 3.518-6.602 6.995-8.53z"></path><path class="film1" d="M13.602 73.861a11.748 11.748 0 007.085 5.632 11.75 11.75 0 008.991-1.028c3.91-2.17 6.189-6.4 6.017-10.79l-23.374-1.558a11.655 11.655 0 001.281 7.744z"></path><path class="film2" d="M35.696 67.675c.17 4.39-2.107 8.62-6.017 10.79a11.749 11.749 0 01-8.992 1.028 11.748 11.748 0 01-7.085-5.632 11.65 11.65 0 01-1.28-7.744l-9.892-.66c-.047.357-.086.696-.11 1.017l-.01.244a20.79 20.79 0 00-.053 1.809c.001.06.005.121.014.248.02.692.058 1.27.12 1.821l.033.207c.087.705.183 1.293.3 1.843.01.049.024.097.039.15A21.692 21.692 0 0023.96 89.822h.194a21.73 21.73 0 0010.367-2.761 21.589 21.589 0 002.739-1.842l.159-.12c.112-.086.225-.171.335-.26a21.587 21.587 0 002.247-2.151c.133-.146.259-.295.439-.506a21.61 21.61 0 001.857-2.498c.043-.069.083-.14.122-.212l.057-.102c.496-.82.949-1.702 1.348-2.623l.072-.158c.044-.095.088-.19.128-.289a21.933 21.933 0 001.084-3.528c.234-1.064.383-2.058.456-3.036.008-.1.01-.202.014-.303l.005-.159c.017-.315.015-.624.019-.935l-9.909-.66z"></path><path class="film3" d="M12.674 64.62c.912-2.936 2.877-5.363 5.53-6.836a11.75 11.75 0 015.718-1.482c4.16 0 8.202 2.197 10.36 6.086.476.858.832 1.825 1.118 3.046.175.745.267 1.495.295 2.24l9.91.66a21.715 21.715 0 00-.064-2.12l-.004-.075a3.37 3.37 0 00-.012-.2c-.1-.99-.29-2.022-.585-3.203a2.243 2.243 0 00-.054-.283s-.793-2.44-1.117-3.12-.548-1.178-.857-1.737C37.108 47.14 23.878 43.35 13.417 49.155A21.48 21.48 0 003.409 61.161l-.032-.021-.369 1.331a4.08 4.08 0 00-.064.285 21.476 21.476 0 00-.369 1.672 5.403 5.403 0 00-.04.29c-.043.265-.075.503-.106.739l9.892.66c.09-.502.198-1.002.353-1.498z"></path>


</svg>
