
<svg   xmlns="http://www.w3.org/2000/svg" viewBox="0 0 150 150" >
        <style> .home0{fill:#ab005f} .home1{fill:none}</style> 
        <path class="home0" d="M128.482 67.272H21.224a1 1 0 00-1 1v72.983a1 1 0 001 1h58.547a1 1 0 001-1v-31.872c0-.618.448-1.119 1-1.119h19.852c.552 0 1 .501 1 1.12v31.872a1 1 0 001 1h24.859a1 1 0 001-1V68.273a1 1 0 00-1-1zM57.874 91.885c0 5.927-4.805 10.732-10.732 10.732S36.41 97.812 36.41 91.885c0-.222.02-.44.033-.659.342-5.618 4.994-10.073 10.699-10.073 4.052 0 7.577 2.248 9.404 5.563a10.678 10.678 0 011.328 5.17zm79.873-33.7l-29.928-24.126L75.453 7.966a1 1 0 00-1.258.002L51.94 26.01v-9.054a1 1 0 00-1-1H37.461a1 1 0 00-1 1v21.602L12.249 58.187c-.528.428-.451 1.157-.018 1.533a.968.968 0 00.647.244H137.12c.943 0 1.362-1.187.627-1.779z">
        </path>
        <path class="home1" d="M47.142 81.153c-5.705 0-10.357 4.455-10.699 10.073l20.103-4.51a10.727 10.727 0 00-9.404-5.563z">
        </path>
        <path d="M47.142 81.153c4.052 0 7.578 2.247 9.404 5.563l72.936-16.364v-2.08a1 1 0 00-1-1H21.224a1 1 0 00-1 1v26.593l16.219-3.639c.342-5.618 4.994-10.073 10.699-10.073zm90.605-22.968l-29.928-24.126L75.453 7.966a1 1 0 00-1.258.002L51.94 26.011v-9.054a1 1 0 00-1-1H37.461a1 1 0 00-1 1v21.602L12.249 58.187c-.528.428-.451 1.156-.018 1.533a.967.967 0 00.647.244H137.12c.943 0 1.362-1.186.627-1.778z" fill="#eb1478">
        </path>
        <path class="home1" d="M101.623 108.264H81.77c-.552 0-1 .5-1 1.119v15.182l21.852 10.217v-25.4c0-.617-.448-1.118-1-1.118z">
        </path>
        <path d="M80.771 109.383c0-.618.448-1.12 1-1.12h19.852c.552 0 1 .502 1 1.12v25.399l15.985 7.473h9.874a1 1 0 001-1V70.352L56.546 86.716a10.678 10.678 0 011.328 5.17c0 5.927-4.805 10.732-10.732 10.732S36.41 97.813 36.41 91.886c0-.222.02-.44.033-.659l-16.22 3.64v1.392l60.547 28.307v-15.183z" fill="#bf106e">
        </path>
        <path class="home0" d="M103.623 142.255h14.985l-15.985-7.473v6.473a1 1 0 001 1zm-82.4 0h58.548a1 1 0 001-1v-16.69L20.224 96.258v44.997a1 1 0 001 1z">
        </path>

</svg>

