
<svg   xmlns="http://www.w3.org/2000/svg" viewBox="0 0 150 150" >
        <style> .phone0{fill:#ab005f} .phone1{fill:none}</style>
        <path class="phone0" d="M118.4 5.4l-86.6-.1c-.6 0-1.1.5-1.1 1.1v31.1l-.1 106c0 .6.5 1.1 1.1 1.1h16l70.6.1c.6 0 1.1-.5 1.1-1.1v-31l.1-106.2c-.1-.5-.5-1-1.1-1zm-50 6.2c0-.5.4-1 1-1h11.3c.5 0 1 .4 1 1v2.5c0 .5-.4 1-1 1H69.4c-.5 0-1-.4-1-1v-2.5zm-30.6.3c.4-2.5 3.2-3.8 5.4-2.5 1.2.7 1.9 2.2 1.7 3.6-.4 2.5-3.2 3.8-5.4 2.5-1.3-.7-1.9-2.2-1.7-3.6zm42.3 123c-.4 2.2-2.2 4-4.5 4.4-3 .6-5.7-1.2-6.5-3.9-.3-.9-.3-1.8-.1-2.8.4-2.2 2.2-4 4.5-4.4 2.6-.5 4.9.8 6.1 2.9.6 1.1.8 2.4.5 3.8zm31.7-28.6v14.3h-7.4l-66.2-.1.1-76.7V20.9l73.6.1-.1 85.3z"></path>
        <circle transform="rotate(-89.942 74.591 133.82)" class="phone1" cx="74.6" cy="133.8" r="5.7"></circle><path class="phone1" d="M111.8 120.7v-14.4L38.2 43.9l-.1 76.7z"></path>
        <path d="M118.4 5.4l-86.6-.1c-.6 0-1.1.5-1.1 1.1v31.1l7.5 6.4V21l73.6.1-.1 85.2 7.5 6.4.1-106.2c.1-.6-.3-1.1-.9-1.1zM44.9 13c-.4 2.5-3.2 3.8-5.4 2.5-1.2-.7-1.9-2.2-1.7-3.6.4-2.5 3.2-3.8 5.4-2.5 1.3.7 1.9 2.2 1.7 3.6zm36.8 1.1c0 .5-.4 1-1 1H69.4c-.5 0-1-.4-1-1v-2.5c0-.5.4-1 1-1h11.3c.5 0 1 .4 1 1v2.5z" fill="#eb1478"></path>
        <path class="phone1" d="M74.6 128.2c-3.1 0-5.7 2.5-5.7 5.7 0 .6.1 1.2.3 1.7l10.4-4.4c-1-1.8-2.9-3-5-3z"></path>
        <path d="M69 132.7c.4-2.2 2.2-4 4.5-4.4 2.6-.5 4.9.8 6.1 2.9l24.8-10.5-66.2-.1.1-76.7-7.5-6.4-.1 106c0 .6.5 1.1 1.1 1.1h16l21.6-9.1c-.5-.9-.6-1.8-.4-2.8zm50.3-20l-7.5-6.4v11.2l7.5-3.2z" fill="#bf106e"></path>
        <path class="phone0" d="M119.3 143.6v-29.3l-7.5 3.2v3.1h-7.4l-24.8 10.5c.6 1.1.8 2.4.6 3.8-.4 2.2-2.2 4-4.5 4.4-3 .6-5.7-1.2-6.5-3.9l-21.6 9.1 70.6.1c.6.1 1.1-.4 1.1-1z"></path>
        

</svg>

