
<svg   xmlns="http://www.w3.org/2000/svg" viewBox="0 0 150 150" >
        <style> .travel1{fill:none} .travel2{fill:#bf106e} .travel3{fill:#eb1478}</style><path class="travel2" d="M124.31 129.295l-2.733-58.294-.234-5.939a46.178 46.178 0 00-5.937-20.934c-3.477-6.162-11.412-12.983-14.244-14.806-2.832-1.823-5.744-3.5-8.894-4.764 0-.055.003-.11.003-.164 0-.19-.018-.368-.022-.555-.231-12.198-7.923-19.983-17.366-19.983-9.467 0-17.176 7.824-17.37 20.075-.002.156-.017.304-.017.462 0 .085.004.169.005.254-3.143 1.282-5.557 2.781-8.865 4.816S37.878 38.22 34.43 44.44a46.17 46.17 0 00-5.765 20.622l-.18 4.55-.056 1.396-2.734 58.287c-.05 1.266.059 2.499.287 3.69 1.424 7.463 7.973 13.156 15.907 13.156h66.225c7.934 0 14.483-5.693 15.907-13.155.043-.227.062-.46.096-.69.127-.86.207-1.733.194-2.63-.002-.124.001-.247-.004-.372zM64.044 21.83c.863-7.545 5.47-11.584 10.841-11.584 5.36 0 9.957 4.011 10.835 11.53.029.242.065.478.085.729a46.435 46.435 0 00-10.798-1.275h-.004c-3.803 0-7.5.464-11.042 1.33.02-.25.055-.487.083-.73zM83.003 52.5a8 8 0 11-16 0 8 8 0 0116 0zm-45.449 42a1.225 1.225 0 01-1.224-1.225v-3.55c0-.677.548-1.225 1.224-1.225h75.55c.676 0 1.224.548 1.224 1.225v3.55c0 .677-.55 1.225-1.225 1.225h-75.55zm15.737 16v5.851c0 .6-.486 1.086-1.086 1.086h-4.214c-.6 0-1.087-.486-1.087-1.086v-10.199c0-.822.487-1.489 1.086-1.489h54.039c.6 0 1.086.667 1.086 1.489v2.86c0 .821-.486 1.488-1.086 1.488H53.292z"></path><circle class="travel2" cx="50.098" cy="113.929" r="1.629"></circle><path class="travel2" d="M28.26 15.298l2.92 20.524a.495.495 0 00.904.205 46.55 46.55 0 0113.852-13.159.988.988 0 00.464-.982l-.15-1.05-1.705-11.984a2.17 2.17 0 00-2.455-1.846L29.529 8.793a2.172 2.172 0 00-1.845 2.457l.576 4.048zm75.607 8.402a46.565 46.565 0 0113.838 13.041c.26.374.836.244.902-.207l1.608-11.096 1.907-13.164a2.172 2.172 0 00-1.84-2.462l-12.555-1.82a2.173 2.173 0 00-2.462 1.839l-.823 5.677-1.044 7.205a.99.99 0 00.467.986z"></path><path class="travel1" d="M75.006 21.229c3.716 0 7.33.447 10.798 1.275-.02-.25-.056-.487-.085-.73-.878-7.518-5.475-11.529-10.834-11.529-5.372 0-9.979 4.04-10.842 11.584-.027.244-.063.48-.083.73A46.423 46.423 0 0175 21.23h.005z"></path><path d="M50.098 115.558a1.63 1.63 0 110-3.258 1.63 1.63 0 010 3.258z" fill="#fff"></path><path class="travel1" d="M114.33 93.275v-3.55c0-.677-.548-1.225-1.225-1.225H58.532c3.124 1.96 6.323 3.964 9.572 6h45.002c.676 0 1.225-.548 1.225-1.225z"></path><circle class="travel1" cx="75.004" cy="52.5" r="8"></circle><path class="travel1" d="M103.115 109.011v-2.859c0-.822-.486-1.489-1.086-1.489H84.33l9.327 5.837h8.37c.6 0 1.087-.667 1.087-1.489zM75.005 21.23c3.717 0 7.33.446 10.8 1.275-.021-.25-.057-.487-.086-.73-.878-7.518-5.475-11.529-10.834-11.529-5.372 0-9.979 4.04-10.842 11.584-.027.244-.063.48-.083.73A46.423 46.423 0 0175 21.23h.005z"></path><path class="travel3" d="M113.105 88.5c.676 0 1.225.548 1.225 1.225v3.55c0 .677-.549 1.225-1.225 1.225H68.103c5.322 3.335 10.77 6.747 16.228 10.163h17.698c.6 0 1.086.667 1.086 1.489v2.86c0 .821-.486 1.488-1.086 1.488h-8.37a68844.717 68844.717 0 0030.655 19.168c-.002-.124.002-.247-.003-.373l-2.734-58.294-.235-5.939a46.18 46.18 0 00-5.937-20.934c-3.478-6.162-11.412-12.983-14.244-14.806s-5.744-3.5-8.894-4.764c0-.055.003-.11.003-.164 0-.19-.018-.368-.022-.555-.231-12.198-7.923-19.983-17.366-19.983-9.467 0-17.176 7.824-17.37 20.075-.001.156-.017.305-.017.462 0 .085.004.169.005.254-3.143 1.282-5.557 2.781-8.865 4.816S37.878 38.22 34.43 44.44a46.172 46.172 0 00-5.766 20.622l-.18 4.55c8.037 5.07 18.517 11.656 30.047 18.887h54.574zm-38.101-28a8 8 0 110-16 8 8 0 010 16zm-10.96-38.671c.862-7.545 5.469-11.584 10.84-11.584 5.36 0 9.957 4.011 10.835 11.53.029.242.065.478.085.729a46.434 46.434 0 00-10.798-1.276H75c-3.802 0-7.5.464-11.041 1.33.019-.25.055-.486.083-.729z"></path><circle class="travel2" cx="50.098" cy="113.929" r="1.629"></circle><path class="travel2" d="M124.314 129.668c-9.313-5.82-19.854-12.41-30.656-19.168H53.291v5.851c0 .6-.486 1.086-1.086 1.086H47.99c-.6 0-1.086-.486-1.086-1.086v-10.199c0-.822.487-1.489 1.086-1.489h36.341A34563.96 34563.96 0 0168.103 94.5H37.555a1.225 1.225 0 01-1.225-1.225v-3.55c0-.677.548-1.225 1.225-1.225H58.53a13267.05 13267.05 0 01-30.046-18.888l-.055 1.397-2.734 58.286a16.22 16.22 0 00.287 3.691c1.425 7.462 7.973 13.156 15.908 13.156h31.794l50.435-13.845c.128-.859.208-1.732.195-2.628z"></path><path d="M124.024 132.986c.043-.226.062-.46.096-.689l-50.435 13.845h34.431c7.935 0 14.484-5.693 15.908-13.155z" fill="#ab005f"></path><path class="travel3" d="M44.547 8.85a2.172 2.172 0 00-2.457-1.844L29.53 8.793a2.173 2.173 0 00-1.846 2.457l.577 4.048 17.991 5.536-1.705-11.983z"></path><path class="travel2" d="M32.085 36.028a46.55 46.55 0 0113.852-13.16.988.988 0 00.465-.982l-.15-1.05-17.991-5.537 2.92 20.523a.496.496 0 00.904.206z"></path><path class="travel3" d="M122.123 12.274a2.172 2.172 0 00-1.839-2.462l-12.556-1.82a2.173 2.173 0 00-2.462 1.839l-.822 5.677 15.771 9.93 1.908-13.164z"></path><path class="travel2" d="M103.867 23.7a46.563 46.563 0 0113.838 13.041c.26.374.836.244.902-.207l1.608-11.096-15.772-9.93-1.044 7.205a.99.99 0 00.467.987z"></path>
</svg>